<svg width="84" height="80" viewBox="0 0 84 80" fill="none" xmlns="http://www.w3.org/2000/svg">
<rect y="0.191406" width="83.581" height="79.6172" rx="3" fill="#025077"/>
<path d="M27.7644 16.2841C24.607 16.6529 21.8529 18.0587 19.5828 20.4671C15.2845 25.0189 14.8005 31.956 18.4189 37.2222C19.0297 38.1095 24.6416 43.9289 24.8951 43.9289C24.9642 43.9289 26.0589 42.8918 27.3265 41.6357C29.8617 39.1121 30.1959 38.8701 31.4865 38.7664C33.4685 38.6166 35.1164 40.0109 35.3929 42.0966L35.4621 42.6152H36.3494C37.5017 42.6037 38.0779 42.8802 38.9998 43.8712C39.8525 44.7816 40.1175 45.473 40.0254 46.5216L39.9562 47.2476L40.5554 47.3168C42.307 47.5587 43.7013 48.9761 43.8396 50.6701L43.8857 51.3615H44.8882C45.6834 51.3615 45.9945 51.4191 46.4554 51.6265C47.458 52.0875 48.2761 53.0439 48.5412 54.0695C48.6103 54.3576 48.7025 54.5765 48.7486 54.565C48.8638 54.5304 59.9263 42.6728 59.9839 42.523C60.03 42.3847 47.1007 29.4093 46.9164 29.4093C46.8472 29.4093 45.9484 30.2621 44.8998 31.3222C42.8025 33.4195 41.9728 34.0302 40.4632 34.5603C39.622 34.8484 39.4031 34.883 37.9281 34.883C36.4531 34.883 36.2341 34.8484 35.3929 34.5603C33.8488 34.0187 31.9935 32.705 31.9935 32.1519C31.9935 32.0136 33.7566 30.1353 36.6029 27.2429L41.2123 22.5529L39.4607 20.8128C38.2507 19.6259 37.3634 18.8539 36.649 18.3814C34.0101 16.6529 30.8988 15.9154 27.7644 16.2841Z" fill="#BBE8FE"/>
<path d="M52.3324 16.4568C50.431 16.791 48.4029 17.6668 46.8472 18.8191C46.0982 19.3723 33.6068 31.9328 33.6068 32.1402C33.6068 32.1863 33.8834 32.4168 34.2175 32.6357C35.8539 33.7074 38.1701 33.9955 40.1175 33.3732C41.316 32.9814 41.9152 32.532 44.2775 30.1928C46.2134 28.2799 46.6398 27.9111 46.9279 27.9111C47.216 27.9111 48.1839 28.833 54.0955 34.733L60.9289 41.5664L61.8046 40.6445C63.9711 38.3398 64.916 37.2336 65.5037 36.3348C68.4306 31.8637 68.2463 25.86 65.0658 21.5732C63.9134 20.0176 62.0927 18.4734 60.3988 17.6207C58.0711 16.4568 54.9252 15.9959 52.3324 16.4568Z" fill="#BBE8FE"/>
<path d="M30.6683 40.2303C30.0345 40.5299 23.881 46.7065 23.639 47.2942C23.4201 47.8242 23.4201 48.7692 23.6275 49.2647C24.0769 50.3364 25.3791 50.9356 26.5775 50.6129C27.0384 50.4977 27.4648 50.1059 30.4263 47.1789C32.5812 45.0241 33.8257 43.7104 33.964 43.4108C34.2406 42.8231 34.2406 42.0395 33.964 41.4518C33.7451 40.9563 33.0652 40.2994 32.6043 40.1151C32.1433 39.9422 31.1638 39.9998 30.6683 40.2303Z" fill="#BBE8FE"/>
<path d="M35.5658 43.9975C35.0011 44.2395 28.1447 51.119 27.9027 51.6722C27.6838 52.2022 27.6838 53.0319 27.8912 53.5274C28.0755 53.9653 28.5711 54.4839 29.032 54.7259C29.516 54.9679 30.4955 54.9333 31.0255 54.6567C31.5902 54.3686 38.5043 47.4431 38.6656 47.0052C38.8269 46.5903 38.8269 45.8759 38.6656 45.461C38.5043 45.0231 37.663 44.1704 37.2136 43.9745C36.7297 43.7671 36.0728 43.7786 35.5658 43.9975Z" fill="#BBE8FE"/>
<path d="M39.0804 48.7685C38.4005 49.1027 32.4084 55.141 32.1548 55.7402C31.9474 56.2472 31.9129 57.1921 32.0972 57.6531C32.2701 58.114 32.8923 58.7824 33.3879 59.0359C33.9755 59.324 34.9666 59.324 35.5427 59.0359C35.9806 58.8054 42.1111 52.7095 42.3416 52.2716C42.4107 52.1333 42.5259 51.7992 42.5836 51.5226C43.0214 49.5867 40.8666 47.8812 39.0804 48.7685Z" fill="#BBE8FE"/>
<path d="M43.8972 52.7558C43.7013 52.8595 42.9523 53.5394 42.2263 54.2769C41.5119 55.0144 40.0138 56.5586 38.8961 57.6994C37.7783 58.8402 36.7873 59.9234 36.6836 60.1193C35.9922 61.5482 36.7642 63.2537 38.3084 63.7031C39.0689 63.922 39.9216 63.7953 40.4863 63.3689C41.0855 62.9195 46.9048 56.6162 47.1814 56.1207C47.8037 54.9683 47.2851 53.4357 46.0291 52.7904C45.499 52.5253 44.4158 52.5023 43.8972 52.7558Z" fill="#BBE8FE"/>
</svg>
