<svg width="16" height="20" viewBox="0 0 16 20" fill="none" xmlns="http://www.w3.org/2000/svg">
<path d="M0.999939 17C0.716606 17 0.478939 16.904 0.286939 16.712C0.0956058 16.5207 -6.10352e-05 16.2833 -6.10352e-05 16C-6.10352e-05 15.7167 0.0956058 15.4793 0.286939 15.288C0.478939 15.096 0.716606 15 0.999939 15H1.99994V8C1.99994 6.61667 2.41661 5.38733 3.24994 4.312C4.08327 3.23733 5.16661 2.53333 6.49994 2.2V1.5C6.49994 1.08333 6.64594 0.729333 6.93794 0.438C7.22927 0.146 7.58327 0 7.99994 0C8.41661 0 8.77061 0.146 9.06194 0.438C9.35394 0.729333 9.49994 1.08333 9.49994 1.5V2.2C10.8333 2.53333 11.9166 3.23733 12.7499 4.312C13.5833 5.38733 13.9999 6.61667 13.9999 8V15H14.9999C15.2833 15 15.5206 15.096 15.7119 15.288C15.9039 15.4793 15.9999 15.7167 15.9999 16C15.9999 16.2833 15.9039 16.5207 15.7119 16.712C15.5206 16.904 15.2833 17 14.9999 17H0.999939ZM7.99994 20C7.44994 20 6.97927 19.8043 6.58794 19.413C6.19594 19.021 5.99994 18.55 5.99994 18H9.99994C9.99994 18.55 9.80427 19.021 9.41294 19.413C9.02094 19.8043 8.54994 20 7.99994 20ZM3.99994 15H11.9999V8C11.9999 6.9 11.6083 5.95833 10.8249 5.175C10.0416 4.39167 9.09994 4 7.99994 4C6.89994 4 5.95827 4.39167 5.17494 5.175C4.39161 5.95833 3.99994 6.9 3.99994 8V15Z" fill="#919191"/>
</svg>
