<svg width="90" height="90" viewBox="0 0 90 90" fill="none" xmlns="http://www.w3.org/2000/svg">
<rect x="0.5" y="0.5" width="89" height="89" rx="44.5" fill="#F8F8F8"/>
<rect x="0.5" y="0.5" width="89" height="89" rx="44.5" stroke="#AEAEAE" stroke-linecap="round" stroke-dasharray="7 7"/>
<path d="M55.2085 39.167V36.2503H52.2918V33.3337H55.2085V30.417H58.1252V33.3337H61.0418V36.2503H58.1252V39.167H55.2085ZM31.8752 59.5837C31.0731 59.5837 30.3867 59.2983 29.816 58.7276C29.2443 58.156 28.9585 57.4691 28.9585 56.667V39.167C28.9585 38.3649 29.2443 37.6785 29.816 37.1078C30.3867 36.5362 31.0731 36.2503 31.8752 36.2503H36.4689L39.1668 33.3337H47.9168V36.2503H40.4429L37.7814 39.167H31.8752V56.667H55.2085V43.542H58.1252V56.667C58.1252 57.4691 57.8398 58.156 57.2691 58.7276C56.6975 59.2983 56.0106 59.5837 55.2085 59.5837H31.8752ZM43.5418 54.4795C45.3647 54.4795 46.9145 53.8417 48.191 52.5662C49.4665 51.2896 50.1043 49.7399 50.1043 47.917C50.1043 46.0941 49.4665 44.5444 48.191 43.2678C46.9145 41.9923 45.3647 41.3545 43.5418 41.3545C41.7189 41.3545 40.1692 41.9923 38.8927 43.2678C37.6171 44.5444 36.9793 46.0941 36.9793 47.917C36.9793 49.7399 37.6171 51.2896 38.8927 52.5662C40.1692 53.8417 41.7189 54.4795 43.5418 54.4795ZM43.5418 51.5628C42.521 51.5628 41.6581 51.2104 40.9533 50.5055C40.2484 49.8007 39.896 48.9378 39.896 47.917C39.896 46.8962 40.2484 46.0333 40.9533 45.3285C41.6581 44.6236 42.521 44.2712 43.5418 44.2712C44.5627 44.2712 45.4255 44.6236 46.1304 45.3285C46.8352 46.0333 47.1877 46.8962 47.1877 47.917C47.1877 48.9378 46.8352 49.8007 46.1304 50.5055C45.4255 51.2104 44.5627 51.5628 43.5418 51.5628Z" fill="#919191"/>
</svg>
