<?xml version="1.0" encoding="UTF-8"?>
<!DOCTYPE svg PUBLIC "-//W3C//DTD SVG 1.1//EN" "http://www.w3.org/Graphics/SVG/1.1/DTD/svg11.dtd">
<svg xmlns="http://www.w3.org/2000/svg" version="1.1" width="9399px" height="9399px" style="shape-rendering:geometricPrecision; text-rendering:geometricPrecision; image-rendering:optimizeQuality; fill-rule:evenodd; clip-rule:evenodd" xmlns:xlink="http://www.w3.org/1999/xlink">
<g><path style="opacity:0.999" fill="#026394" d="M 3286.5,3211.5 C 3322,3212.64 3357,3217.47 3391.5,3226C 3445.86,3238.34 3497.86,3257.01 3547.5,3282C 3560.22,3288.59 3567.05,3299.09 3568,3313.5C 3569.51,3340.09 3567.51,3366.43 3562,3392.5C 3557.43,3416.67 3552.1,3440.67 3546,3464.5C 3449.46,3821.14 3315.79,4163.14 3145,4490.5C 3071.87,4631.18 2993.53,4768.51 2910,4902.5C 2841.16,5010.52 2767.16,5114.86 2688,5215.5C 2640.71,5272.77 2581.54,5312.6 2510.5,5335C 2450.27,5350.85 2391.94,5345.51 2335.5,5319C 2275.47,5292.3 2223.97,5254.14 2181,5204.5C 2169.66,5190.81 2160.32,5175.81 2153,5159.5C 2149.26,5147.81 2147.26,5135.81 2147,5123.5C 2139.52,5013.23 2138.52,4902.9 2144,4792.5C 2158.27,4539.04 2189.6,4287.7 2238,4038.5C 2272.28,3866.39 2317.94,3697.39 2375,3531.5C 2395.87,3471.23 2421.2,3412.9 2451,3356.5C 2461.42,3337.98 2473.09,3320.31 2486,3303.5C 2493.78,3293.71 2503.28,3286.21 2514.5,3281C 2518.28,3280.09 2522.11,3279.59 2526,3279.5C 2555.91,3282.6 2585.08,3289.1 2613.5,3299C 2660.64,3314.74 2705.64,3335.07 2748.5,3360C 2758.85,3366.51 2768.85,3373.51 2778.5,3381C 2788.1,3388.87 2793.76,3398.87 2795.5,3411C 2795.27,3417.03 2793.44,3422.53 2790,3427.5C 2783.7,3434.8 2777.03,3441.8 2770,3448.5C 2764.18,3455.48 2758.84,3462.81 2754,3470.5C 2696.94,3586 2650.27,3705.67 2614,3829.5C 2522.16,4142.53 2465.49,4461.86 2444,4787.5C 2440.18,4840.12 2437.18,4892.79 2435,4945.5C 2434.3,4973.18 2434.64,5000.84 2436,5028.5C 2436.38,5040.4 2439.05,5051.74 2444,5062.5C 2448.11,5069.8 2454.27,5072.64 2462.5,5071C 2473.06,5066.12 2482.22,5059.29 2490,5050.5C 2501.73,5036.71 2512.73,5022.37 2523,5007.5C 2643.49,4826.51 2754.82,4639.51 2857,4446.5C 2985.85,4198.95 3091.85,3941.95 3175,3675.5C 3212.35,3552.41 3239.35,3427.08 3256,3299.5C 3257.31,3282.02 3256.31,3264.69 3253,3247.5C 3249.46,3233.42 3253.96,3222.92 3266.5,3216C 3273.14,3213.77 3279.81,3212.27 3286.5,3211.5 Z"/></g>
<g><path style="opacity:0.998" fill="#026394" d="M 3918.5,4053.5 C 3953.39,4054.06 3986.72,4061.56 4018.5,4076C 4114.56,4119.06 4188.72,4186.23 4241,4277.5C 4259.24,4313.81 4265.57,4352.15 4260,4392.5C 4253.65,4463.55 4230.65,4528.55 4191,4587.5C 4136.85,4667.98 4068.69,4733.82 3986.5,4785C 3913.45,4831.01 3834.45,4862.35 3749.5,4879C 3722.05,4883.93 3694.38,4886.43 3666.5,4886.5C 3662.64,4944.6 3668.81,5001.6 3685,5057.5C 3693.9,5087.93 3707.9,5115.6 3727,5140.5C 3756.8,5172.31 3793.63,5189.48 3837.5,5192C 3885.71,5195.69 3930.71,5185.36 3972.5,5161C 4010.29,5138.3 4044.12,5110.47 4074,5077.5C 4135.14,5011.2 4188.47,4939.2 4234,4861.5C 4292.81,4760.87 4344.48,4656.54 4389,4548.5C 4418.65,4437.23 4453.31,4327.56 4493,4219.5C 4508.5,4179.49 4524.84,4139.82 4542,4100.5C 4547.66,4086.51 4557.16,4076.01 4570.5,4069C 4586.6,4065.94 4602.6,4066.61 4618.5,4071C 4682.77,4088.6 4740.77,4117.93 4792.5,4159C 4807.4,4170.04 4811.57,4184.2 4805,4201.5C 4788.96,4229.58 4775.63,4258.92 4765,4289.5C 4708.2,4443.04 4660.87,4599.37 4623,4758.5C 4703.33,4581.4 4798.67,4413.74 4909,4255.5C 4942.28,4209.17 4978.78,4165.34 5018.5,4124C 5034.91,4108.26 5051.91,4093.26 5069.5,4079C 5087.25,4069.15 5106.25,4065.15 5126.5,4067C 5181.3,4076.6 5232.97,4094.93 5281.5,4122C 5300.47,4133.64 5316.97,4148.14 5331,4165.5C 5339.39,4177.13 5341.73,4189.79 5338,4203.5C 5333.33,4212.85 5327.66,4221.52 5321,4229.5C 5299.06,4248.77 5277.73,4268.77 5257,4289.5C 5225.72,4325.01 5200.72,4364.68 5182,4408.5C 5154.64,4473.28 5136.97,4540.62 5129,4610.5C 5127.45,4632.37 5128.78,4654.03 5133,4675.5C 5138.76,4697.24 5151.26,4713.74 5170.5,4725C 5186.78,4729.5 5203.11,4729.5 5219.5,4725C 5245.32,4717.26 5268.32,4704.59 5288.5,4687C 5321.98,4656.87 5351.81,4623.7 5378,4587.5C 5402.91,4552.58 5426.24,4516.58 5448,4479.5C 5483.75,4349.9 5528.42,4223.56 5582,4100.5C 5595.06,4070.23 5617.56,4059.73 5649.5,4069C 5717.18,4086.01 5778.18,4116.01 5832.5,4159C 5836,4162.5 5839.5,4166 5843,4169.5C 5847.96,4177.64 5849.3,4186.31 5847,4195.5C 5835.88,4216.74 5825.55,4238.41 5816,4260.5C 5754.63,4422.26 5703.97,4587.26 5664,4755.5C 5737.36,4595.04 5822.69,4442.04 5920,4296.5C 5952.37,4249.46 5987.03,4204.13 6024,4160.5C 6050.58,4131.25 6079.08,4104.09 6109.5,4079C 6135.03,4065.65 6161.69,4062.99 6189.5,4071C 6246.29,4084.07 6298.29,4107.4 6345.5,4141C 6355.85,4148.68 6364.02,4158.18 6370,4169.5C 6374.65,4183.68 6373.98,4197.68 6368,4211.5C 6333.7,4284.72 6304.7,4360.05 6281,4437.5C 6216.12,4646.82 6161.45,4858.82 6117,5073.5C 6111.03,5103.83 6106.19,5134.33 6102.5,5165C 6102.7,5186.93 6112.37,5192.6 6131.5,5182C 6144.27,5171.23 6156.44,5159.73 6168,5147.5C 6219.43,5090.96 6264.76,5029.96 6304,4964.5C 6330.85,4920.14 6356.19,4874.8 6380,4828.5C 6386.46,4752.87 6401.13,4678.87 6424,4606.5C 6452.42,4513.55 6491.08,4425.22 6540,4341.5C 6585.44,4266.24 6641.61,4199.74 6708.5,4142C 6740.16,4115.49 6774.82,4093.49 6812.5,4076C 6857.43,4056.6 6904.1,4050.27 6952.5,4057C 6991.17,4065.5 7027.5,4079.84 7061.5,4100C 7135.48,4143.65 7193.65,4202.81 7236,4277.5C 7254.24,4313.81 7260.57,4352.15 7255,4392.5C 7248.65,4463.55 7225.65,4528.55 7186,4587.5C 7131.85,4667.98 7063.69,4733.82 6981.5,4785C 6908.45,4831.01 6829.45,4862.35 6744.5,4879C 6717.05,4883.93 6689.38,4886.43 6661.5,4886.5C 6656.84,4953.05 6665.67,5017.72 6688,5080.5C 6716.15,5156.27 6770.81,5193.6 6852,5192.5C 6883.92,5192.65 6914.42,5186.15 6943.5,5173C 6974.75,5158.56 7003.08,5139.89 7028.5,5117C 7087.22,5061.91 7138.72,5001.07 7183,4934.5C 7238.43,4849.67 7287.77,4761 7331,4668.5C 7375.7,4570.77 7417.37,4471.77 7456,4371.5C 7464.47,4356.84 7477.31,4349.84 7494.5,4350.5C 7517.04,4353.54 7531.88,4365.88 7539,4387.5C 7539.74,4393.56 7539.41,4399.56 7538,4405.5C 7491.37,4527.71 7441.04,4648.37 7387,4767.5C 7341.34,4862.54 7289.34,4953.54 7231,5040.5C 7176.18,5120.01 7112.01,5191.51 7038.5,5255C 6950.38,5327.63 6849.38,5356.29 6735.5,5341C 6620.01,5331.53 6527.51,5281.03 6458,5189.5C 6420.72,5133.57 6396.72,5072.24 6386,5005.5C 6342.71,5081.79 6292.04,5152.79 6234,5218.5C 6214.83,5238.34 6194.99,5257.51 6174.5,5276C 6147.97,5299.44 6118.3,5318.11 6085.5,5332C 6038.42,5348.48 5991.42,5348.15 5944.5,5331C 5897.99,5312.16 5864.16,5279.99 5843,5234.5C 5835.58,5214.46 5832.91,5193.79 5835,5172.5C 5870.46,4898.2 5929.79,4629.2 6013,4365.5C 6024.37,4330.07 6035.7,4294.73 6047,4259.5C 6006.7,4304.46 5970.03,4352.13 5937,4402.5C 5864.36,4515.07 5799.36,4632.4 5742,4754.5C 5691.36,4863.11 5645.69,4973.78 5605,5086.5C 5583.33,5147.17 5566.67,5209.17 5555,5272.5C 5552.62,5288.76 5550.95,5305.09 5550,5321.5C 5548.74,5335.1 5541.24,5342.26 5527.5,5343C 5503.81,5345.55 5480.81,5342.55 5458.5,5334C 5405.38,5314.72 5361.55,5282.88 5327,5238.5C 5319.2,5227.24 5313.87,5214.91 5311,5201.5C 5311.1,5175.75 5312.76,5150.08 5316,5124.5C 5324.86,5044.36 5336.86,4964.69 5352,4885.5C 5362.96,4829.68 5374.3,4774.02 5386,4718.5C 5359.71,4749.46 5330.88,4777.63 5299.5,4803C 5275.73,4820.22 5249.73,4833.22 5221.5,4842C 5187.87,4850.54 5154.2,4850.54 5120.5,4842C 5056,4826.35 5000.84,4794.85 4955,4747.5C 4911.67,4699.83 4894.67,4643.83 4904,4579.5C 4907.09,4546.62 4913.09,4514.29 4922,4482.5C 4940.67,4415.48 4964.67,4350.48 4994,4287.5C 4994.63,4284.61 4995.46,4281.77 4996.5,4279C 4996.17,4278.5 4995.83,4278 4995.5,4277.5C 4991.56,4279.94 4988.06,4282.94 4985,4286.5C 4919.81,4368.51 4861.81,4455.51 4811,4547.5C 4713.94,4718.95 4632.61,4897.62 4567,5083.5C 4545.97,5142.97 4529.3,5203.64 4517,5265.5C 4513.64,5284.37 4511.31,5303.37 4510,5322.5C 4509.07,5333.43 4503.24,5339.93 4492.5,5342C 4470.47,5345.54 4448.81,5343.87 4427.5,5337C 4372.38,5318.71 4326.54,5287.21 4290,5242.5C 4270.51,5216.39 4264.85,5187.39 4273,5155.5C 4280.3,5082.13 4289.96,5009.13 4302,4936.5C 4256.36,5015.79 4203.36,5089.79 4143,5158.5C 4105.95,5199.56 4065.78,5237.06 4022.5,5271C 3938.23,5332.23 3844.23,5355.57 3740.5,5341C 3617.86,5330.63 3522.03,5275.13 3453,5174.5C 3414.65,5110.12 3392.32,5040.45 3386,4965.5C 3376.99,4857.96 3387.32,4752.29 3417,4648.5C 3444.53,4546.12 3484.2,4448.78 3536,4356.5C 3584.95,4271.19 3647.45,4197.03 3723.5,4134C 3757.95,4105.6 3796.28,4083.6 3838.5,4068C 3864.67,4059.6 3891.34,4054.76 3918.5,4053.5 Z M 3972.5,4227.5 C 4004.01,4227.66 4023.51,4243 4031,4273.5C 4034.98,4330 4029.65,4385.67 4015,4440.5C 3987.29,4548.47 3934.46,4641.64 3856.5,4720C 3824.65,4750.93 3788.65,4775.93 3748.5,4795C 3723,4806.17 3696.67,4811.5 3669.5,4811C 3688.53,4663.24 3734.7,4524.74 3808,4395.5C 3827.61,4361.57 3849.94,4329.57 3875,4299.5C 3894.99,4277.51 3916.82,4257.67 3940.5,4240C 3950.48,4233.73 3961.15,4229.57 3972.5,4227.5 Z M 6967.5,4227.5 C 6997.27,4227.11 7016.43,4241.11 7025,4269.5C 7027.16,4280.05 7028.32,4290.72 7028.5,4301.5C 7024.07,4442.98 6977.91,4568.65 6890,4678.5C 6858.03,4717.48 6820.87,4750.32 6778.5,4777C 6743.91,4798.59 6706.24,4810.42 6665.5,4812.5C 6684.15,4656.06 6733.98,4510.39 6815,4375.5C 6838.26,4336.88 6866.1,4301.72 6898.5,4270C 6913.37,4256.46 6929.37,4244.46 6946.5,4234C 6953.38,4231.04 6960.38,4228.87 6967.5,4227.5 Z"/></g>
</svg>
