<svg width="158" height="158" viewBox="0 0 158 158" fill="none" xmlns="http://www.w3.org/2000/svg">
<path d="M54.0038 15.7685C33.5132 18.0829 16.9417 32.2165 11.5722 51.9357C8.98002 61.4404 9.44291 71.9943 12.8374 81.5298C14.0718 84.9861 17.0652 90.5716 19.3179 93.6267C20.6449 95.4165 21.2621 96.5275 21.1386 96.8669C21.046 97.1447 19.2562 99.8911 17.2195 103.008C13.7632 108.223 13.4546 108.779 13.4546 110.167C13.4238 111.772 14.0101 112.852 15.5222 113.963C17.0652 115.136 18.3304 114.858 27.3105 111.34L35.6425 108.069L38.4816 109.427C41.7218 111.001 45.6101 112.327 49.3749 113.13C53.5101 114.056 63.7863 113.963 68.3226 113.006C85.8199 109.242 100.046 97.0212 105.662 80.9126C108.841 71.7165 109.18 60.3911 106.465 51.2876C103.348 40.7646 96.8984 31.6611 87.7331 24.8411C84.6163 22.5267 77.5187 18.8853 73.9081 17.7743C67.1808 15.6759 60.7003 15.0279 54.0038 15.7685ZM80.4503 48.2017C81.3761 49.0966 81.4378 50.8865 80.512 51.7197C79.8949 52.2751 79.0925 52.306 59.0956 52.306C39.0988 52.306 38.2964 52.2751 37.6792 51.7197C36.8152 50.9173 36.8152 49.1892 37.7101 48.2325L38.3581 47.5228H59.0648H79.7406L80.4503 48.2017ZM80.4503 63.0142C81.3761 63.9091 81.4378 65.699 80.512 66.5322C79.8949 67.0876 79.0925 67.1185 59.0956 67.1185C39.0988 67.1185 38.2964 67.0876 37.6792 66.5322C36.8152 65.7298 36.8152 64.0017 37.7101 63.045L38.3581 62.3353H59.0648H79.7406L80.4503 63.0142ZM80.4503 77.8267C81.3761 78.7216 81.4378 80.5115 80.512 81.3447C79.8949 81.9001 79.0925 81.931 59.0956 81.931C39.0988 81.931 38.2964 81.9001 37.6792 81.3447C36.8152 80.5423 36.8152 78.8142 37.7101 77.8575L38.3581 77.1478H59.0648H79.7406L80.4503 77.8267Z" fill="#025077"/>
<path d="M112.853 58.3547C113.346 63.0145 113.099 70.575 112.359 74.3707C110.446 84.184 106.094 93.1332 99.7065 100.447C92.6706 108.501 82.1475 114.889 71.8405 117.327C70.2667 117.697 68.9397 118.037 68.878 118.068C68.8163 118.098 69.3409 119.055 70.0198 120.197C80.4502 137.355 103.934 144.761 122.265 136.676C123.839 135.997 125.351 135.349 125.598 135.287C125.875 135.195 128.93 136.244 132.387 137.602C135.874 138.959 139.145 140.163 139.7 140.286C141.181 140.595 143.342 139.422 144.113 137.91C145.286 135.657 145.07 135.04 141.243 129.177L138.342 124.795L139.546 123.283C143.311 118.469 145.903 112.667 147.384 105.847C148.217 101.959 148.156 93.843 147.261 89.5844C143.835 73.6609 132.911 61.5332 118.191 57.2746C116.741 56.8735 114.889 56.4414 114.087 56.318L112.637 56.102L112.853 58.3547Z" fill="#025077"/>
</svg>
