<svg width="115" height="106" viewBox="0 0 115 106" fill="none" xmlns="http://www.w3.org/2000/svg">
<path d="M26.0215 0.205299C19.0376 1.02094 12.9459 4.13052 7.92467 9.45761C-1.58253 19.5256 -2.65304 34.8696 5.35033 46.5178C6.70122 48.4804 19.1141 61.3521 19.6748 61.3521C19.8278 61.3521 22.2492 59.0581 25.0529 56.2799C30.6604 50.6979 31.3995 50.1627 34.2542 49.9333C38.6383 49.6019 42.2831 52.686 42.8948 57.2994L43.0478 58.4464H45.0104C47.5592 58.4209 48.8336 59.0327 50.8727 61.2247C52.7589 63.2382 53.3451 64.7676 53.1412 67.087L52.9883 68.6928L54.3137 68.8457C58.1879 69.381 61.272 72.516 61.5779 76.2628L61.6798 77.7922H63.8973C65.656 77.7922 66.3442 77.9196 67.3637 78.3784C69.5812 79.3979 71.3909 81.5135 71.9771 83.7819C72.1301 84.4192 72.334 84.9034 72.4359 84.8779C72.6908 84.8015 97.1597 58.5739 97.2872 58.2425C97.3891 57.9366 68.7911 29.2366 68.3833 29.2366C68.2303 29.2366 66.2422 31.1228 63.9228 33.4677C59.2839 38.1066 57.4487 39.4575 54.1097 40.63C52.2491 41.2672 51.7648 41.3437 48.5023 41.3437C45.2398 41.3437 44.7555 41.2672 42.8948 40.63C39.4794 39.432 35.3757 36.5263 35.3757 35.3029C35.3757 34.997 39.2755 30.8424 45.5711 24.4448L55.7665 14.071L51.8922 10.2223C49.216 7.59695 47.2533 5.88923 45.6731 4.8442C39.8362 1.02094 32.9543 -0.610329 26.0215 0.205299Z" fill="#BBE8FE"/>
<path d="M80.3634 0.586639C76.1578 1.3258 71.6719 3.26292 68.2309 5.81177C66.5742 7.03522 38.9447 34.8176 38.9447 35.2764C38.9447 35.3784 39.5564 35.8881 40.2956 36.3724C43.915 38.7429 49.0381 39.3801 53.3457 38.0037C55.9965 37.1371 57.3219 36.143 62.547 30.9689C66.8291 26.7378 67.7721 25.9222 68.4094 25.9222C69.0466 25.9222 71.1876 27.9612 84.2632 41.0113L99.3778 56.126L101.315 54.0869C106.107 48.9892 108.197 46.5423 109.497 44.5542C115.971 34.6647 115.563 21.3852 108.528 11.9035C105.979 8.46257 101.952 5.04712 98.2054 3.16097C93.0567 0.586639 86.0983 -0.432899 80.3634 0.586639Z" fill="#BBE8FE"/>
<path d="M32.4444 53.17C31.0426 53.8327 17.4317 67.4945 16.8965 68.7944C16.4122 69.9669 16.4122 72.0569 16.871 73.1529C17.8651 75.5234 20.7452 76.8488 23.396 76.1351C24.4156 75.8802 25.3587 75.0136 31.9092 68.5395C36.6755 63.7732 39.4283 60.8675 39.7341 60.2048C40.3459 58.9049 40.3459 57.1717 39.7341 55.8718C39.2499 54.7758 37.746 53.3229 36.7265 52.9151C35.707 52.5328 33.5405 52.6602 32.4444 53.17Z" fill="#BBE8FE"/>
<path d="M43.2769 61.5041C42.0279 62.0394 26.8623 77.256 26.327 78.4794C25.8428 79.6519 25.8428 81.4871 26.3015 82.5831C26.7094 83.5516 27.8054 84.6986 28.8249 85.2339C29.8954 85.7691 32.0619 85.6926 33.2344 85.0809C34.4833 84.4437 49.7764 69.1252 50.1332 68.1566C50.4901 67.239 50.4901 65.6587 50.1332 64.7411C49.7764 63.7726 47.9158 61.8864 46.9217 61.4531C45.8512 60.9943 44.3983 61.0198 43.2769 61.5041Z" fill="#BBE8FE"/>
<path d="M51.051 72.056C49.5472 72.7952 36.2932 86.1511 35.7324 87.4765C35.2736 88.598 35.1972 90.6881 35.605 91.7076C35.9873 92.7272 37.3637 94.2055 38.4597 94.7662C39.7596 95.4034 41.9516 95.4034 43.226 94.7662C44.1946 94.2565 57.7544 80.7731 58.2642 79.8045C58.4171 79.4986 58.672 78.7595 58.7995 78.1478C59.768 73.8657 55.0017 70.0934 51.051 72.056Z" fill="#BBE8FE"/>
<path d="M61.7055 80.8758C61.2722 81.1052 59.6155 82.609 58.0097 84.2403C56.4294 85.8716 53.1159 89.287 50.6435 91.8104C48.1711 94.3337 45.9791 96.7297 45.7497 97.163C44.2204 100.324 45.9282 104.096 49.3436 105.09C51.0258 105.574 52.912 105.294 54.1609 104.351C55.4863 103.357 68.358 89.4145 68.9697 88.3185C70.3461 85.7696 69.1991 82.3797 66.4209 80.9523C65.2484 80.3661 62.8525 80.3151 61.7055 80.8758Z" fill="#BBE8FE"/>
</svg>
