<svg width="32" height="26" viewBox="0 0 32 26" fill="none" xmlns="http://www.w3.org/2000/svg">
<path d="M21.9999 7H9.99994C8.89537 7 7.99994 7.89543 7.99994 9V17C7.99994 18.1046 8.89537 19 9.99994 19H21.9999C23.1045 19 23.9999 18.1046 23.9999 17V9C23.9999 7.89543 23.1045 7 21.9999 7Z" stroke="#767676" stroke-width="1.33333"/>
<path d="M7.99994 10L15.1059 13.553C15.3835 13.6917 15.6896 13.7639 15.9999 13.7639C16.3103 13.7639 16.6163 13.6917 16.8939 13.553L23.9999 10" stroke="#767676" stroke-width="1.33333"/>
<rect x="18.9999" width="12" height="12" rx="6" fill="#CB000C"/>
<path d="M22.4398 10V9.13L25.2198 6.49C25.4531 6.27 25.6264 6.07667 25.7398 5.91C25.8531 5.74333 25.9264 5.59 25.9598 5.45C25.9998 5.30333 26.0198 5.16667 26.0198 5.04C26.0198 4.72 25.9098 4.47333 25.6898 4.3C25.4698 4.12 25.1464 4.03 24.7198 4.03C24.3798 4.03 24.0698 4.09 23.7898 4.21C23.5164 4.33 23.2798 4.51333 23.0798 4.76L22.1698 4.06C22.4431 3.69333 22.8098 3.41 23.2698 3.21C23.7364 3.00333 24.2564 2.9 24.8298 2.9C25.3364 2.9 25.7764 2.98333 26.1498 3.15C26.5298 3.31 26.8198 3.54 27.0198 3.84C27.2264 4.14 27.3298 4.49667 27.3298 4.91C27.3298 5.13667 27.2998 5.36333 27.2398 5.59C27.1798 5.81 27.0664 6.04333 26.8998 6.29C26.7331 6.53667 26.4898 6.81333 26.1698 7.12L23.7798 9.39L23.5098 8.9H27.5998V10H22.4398Z" fill="#F0FAFF"/>
</svg>
